<svg xmlns="http://www.w3.org/2000/svg" viewBox="0 0 414.54 640.11"><defs><style>.cls-1{fill:#890016;}.cls-1,.cls-3{stroke:#fff;}.cls-1,.cls-3,.cls-4,.cls-5{stroke-miterlimit:10;}.cls-2{font-size:190px;fill:#fff;font-family:MyriadPro-Regular, Myriad Pro;}.cls-3{fill:#860114;stroke-width:7px;}.cls-4,.cls-5{fill:none;stroke:#aa7321;}.cls-4{stroke-width:6px;}.cls-5{stroke-width:4px;}.cls-6{fill:#aa7321;}</style></defs><title>Logo</title><g id="Lag_5" data-name="Lag 5"><path class="cls-1" d="M399.45,88.33S601,72.8,601,398.37,400.56,703.84,400.56,703.84,205.46,711,205.46,397s194-308.69,194-308.69" transform="translate(-195.95 -77.56)"/><text class="cls-2" transform="translate(154.7 166.64)">1</text></g><g id="Lag_1" data-name="Lag 1"><path class="cls-3" d="M402.28,714.17c-1.12,0-1.75,0-1.81,0-.59,0-64.16.34-119.18-54.13-24.62-24.38-44-56.14-57.61-94.42-16.41-46.18-24.56-102.39-24.22-167,.39-72.64,11.12-134.53,31.91-183.95C248,175.05,271.09,143.34,300,120.36c48.93-38.92,98.33-39.29,99.36-39.29h.49c6.23,0,69.21,1.39,123.65,54.64,25.15,24.6,44.94,56.71,58.82,95.43C599,277.77,607.32,334.57,607,400c-.35,66.1-9.25,123.22-26.45,169.77-14.25,38.53-34.29,70.18-59.57,94.08C470.22,711.78,413.09,714.17,402.28,714.17Zm-1.79-1c.67,0,64.09,2.6,119.8-50.08,25.17-23.8,45.12-55.32,59.3-93.71,17.17-46.43,26-103.43,26.39-169.41.34-65.26-7.94-121.94-24.62-168.47-13.82-38.57-33.53-70.55-58.56-95C466.06,80.92,400,82.05,399.36,82.07h0c-.33,0-19.72.06-46.17,9.62a186.14,186.14,0,0,0-52.62,29.49c-28.74,22.88-51.71,54.46-68.28,93.87a363.73,363.73,0,0,0-19.44,62.25c-8,36.09-12.13,76.64-12.37,121.27-.34,64.53,7.78,120.61,24.16,166.68,13.55,38.13,32.85,69.77,57.36,94C336.68,713.47,399.87,713.14,400.49,713.15Z" transform="translate(-195.95 -77.56)"/><path class="cls-4" d="M380.85,678.91V508.4S366.33,498.3,365.07,485s20.2-83.36,20.84-95.36-5.79-18.95-20.9-32.21-4.06-3.56-4.06-3.56" transform="translate(-195.95 -77.56)"/><polyline class="cls-4" points="204.48 585.56 204.48 432.11 184.91 430.84 222.16 430.84 222.16 573.57"/><path class="cls-4" d="M484.47,539.6c0,4.35-6.22,19.28-8.08,23s-15.55,11.2-25.5,13.07-20.53-1.87-26.75-3.74-23.71-7.46-31.1-6.22-12.19,7.47-17.29,12.44-5.73,14.93-5.11,28,10.21,29.23,10.21,29.23" transform="translate(-195.95 -77.56)"/><path d="M424.49,441.53" transform="translate(-195.95 -77.56)"/><path class="cls-4" d="M418.11,535.69s21.77-23.39,27.62-56.14,7.6-38.59,4.68-59.06-9.36-29.83-9.36-53.8l2.34-20.47" transform="translate(-195.95 -77.56)"/><path class="cls-4" d="M445.73,479.55H378.48s-11.11-9.35,18.13-28.36,87.86-61.51,87.86-61.51" transform="translate(-195.95 -77.56)"/><path class="cls-4" d="M399.48,479.55s-5.21-122.8-3.46-126.9,2.34-8.18,15.79-17.54,29.24-22.81,29.24-22.81" transform="translate(-195.95 -77.56)"/><path class="cls-4" d="M415.49,479.55v-93s12-21.05,36.31-31" transform="translate(-195.95 -77.56)"/><path class="cls-5" d="M376.41,474.31s-21.25-6.26-21.88-14.39-1.88-19.31,0-25.3,17.52-46.68,18.78-54.19-1-16.39-1-16.39" transform="translate(-195.95 -77.56)"/></g><g id="Lag_4" data-name="Lag 4"><path class="cls-6" d="M318.64,431.25a21.61,21.61,0,0,0,30.23-6.33,2.27,2.27,0,0,0-.65-3.12A21.61,21.61,0,0,0,318,428.13,2.26,2.26,0,0,0,318.64,431.25Z" transform="translate(-195.95 -77.56)"/><path class="cls-6" d="M340.9,404.64a21.53,21.53,0,0,0,9.52,13.78,2.28,2.28,0,0,0,3.12-.65,21.64,21.64,0,0,0-6.34-30.24,2.27,2.27,0,0,0-3.12.66A21.6,21.6,0,0,0,340.9,404.64Z" transform="translate(-195.95 -77.56)"/><path class="cls-6" d="M300.14,419.16a21.61,21.61,0,0,0,30.23-6.33,2.27,2.27,0,0,0-.65-3.12A21.61,21.61,0,0,0,299.49,416,2.26,2.26,0,0,0,300.14,419.16Z" transform="translate(-195.95 -77.56)"/><path class="cls-6" d="M325.59,376.11a21.6,21.6,0,0,0,6.33,30.22,2.27,2.27,0,0,0,3.12-.65,21.62,21.62,0,0,0-6.33-30.24A2.28,2.28,0,0,0,325.59,376.11Z" transform="translate(-195.95 -77.56)"/><path class="cls-6" d="M281,404a2.27,2.27,0,0,0,.65,3.12,21.65,21.65,0,0,0,30.24-6.33,2.28,2.28,0,0,0-.66-3.13A21.63,21.63,0,0,0,281,404Z" transform="translate(-195.95 -77.56)"/><path class="cls-6" d="M303.9,380.47a21.57,21.57,0,0,0,9.52,13.78,2.27,2.27,0,0,0,3.12-.65,21.62,21.62,0,0,0-6.33-30.24,2.27,2.27,0,0,0-3.12.66A21.58,21.58,0,0,0,303.9,380.47Z" transform="translate(-195.95 -77.56)"/><path class="cls-6" d="M262.5,391.86a2.27,2.27,0,0,0,.65,3.12,21.64,21.64,0,0,0,30.24-6.33,2.29,2.29,0,0,0-.65-3.13,21.64,21.64,0,0,0-30.24,6.34Z" transform="translate(-195.95 -77.56)"/><path class="cls-6" d="M285.41,368.38a21.52,21.52,0,0,0,9.51,13.78,2.29,2.29,0,0,0,3.13-.65,21.64,21.64,0,0,0-6.34-30.24,2.27,2.27,0,0,0-3.12.66A21.58,21.58,0,0,0,285.41,368.38Z" transform="translate(-195.95 -77.56)"/><path class="cls-6" d="M265.06,374.71a21.54,21.54,0,0,0,16.48,3,2.27,2.27,0,0,0,1.75-2.67,21.61,21.61,0,0,0-25.86-16.9,2.27,2.27,0,0,0-1.74,2.67A21.53,21.53,0,0,0,265.06,374.71Z" transform="translate(-195.95 -77.56)"/><path class="cls-6" d="M378.08,437.83a3.27,3.27,0,0,0-.95-4.52l-17.75-11.6a3.26,3.26,0,0,0-4.52.94l-1.07,1.64a3.27,3.27,0,0,0,.95,4.52l17.74,11.6a3.27,3.27,0,0,0,4.52-.94Z" transform="translate(-195.95 -77.56)"/><path class="cls-6" d="M324.41,348.39a19.1,19.1,0,0,0,27.3.14,2,2,0,0,0,0-2.82,19.1,19.1,0,0,0-27.28-.14A2,2,0,0,0,324.41,348.39Z" transform="translate(-195.95 -77.56)"/><path class="cls-6" d="M348.58,329.53a19,19,0,0,0,5.67,13.67,2,2,0,0,0,2.82,0,19.12,19.12,0,0,0,.14-27.3,2,2,0,0,0-2.82,0A19.08,19.08,0,0,0,348.58,329.53Z" transform="translate(-195.95 -77.56)"/><path class="cls-6" d="M310.68,334.51a19.09,19.09,0,0,0,27.29.14,2,2,0,0,0,0-2.82,19.11,19.11,0,0,0-27.29-.14A2,2,0,0,0,310.68,334.51Z" transform="translate(-195.95 -77.56)"/><path class="cls-6" d="M340.65,302a19.11,19.11,0,0,0-.14,27.29,2,2,0,0,0,2.82,0,19.12,19.12,0,0,0,.14-27.3A2,2,0,0,0,340.65,302Z" transform="translate(-195.95 -77.56)"/><path class="cls-6" d="M297,317.82a2,2,0,0,0,0,2.82,19.12,19.12,0,0,0,27.3.14,2,2,0,0,0,0-2.82,19.1,19.1,0,0,0-27.3-.14Z" transform="translate(-195.95 -77.56)"/><path class="cls-6" d="M321.11,301.79a19,19,0,0,0,5.66,13.67,2,2,0,0,0,2.82,0,19.09,19.09,0,0,0,.14-27.29,2,2,0,0,0-2.82,0A19.16,19.16,0,0,0,321.11,301.79Z" transform="translate(-195.95 -77.56)"/><path class="cls-6" d="M283.23,303.94a2,2,0,0,0,0,2.82,19.12,19.12,0,0,0,27.3.14,2,2,0,0,0,0-2.82,19.09,19.09,0,0,0-27.29-.14Z" transform="translate(-195.95 -77.56)"/><path class="cls-6" d="M307.37,287.91A19.07,19.07,0,0,0,313,301.58a2,2,0,0,0,2.82,0,19.12,19.12,0,0,0,.14-27.3,2,2,0,0,0-2.82,0A19.17,19.17,0,0,0,307.37,287.91Z" transform="translate(-195.95 -77.56)"/><path class="cls-6" d="M288.62,289.6a19.06,19.06,0,0,0,13.68,5.66,2,2,0,0,0,2-2,19.09,19.09,0,0,0-19.21-19.4,2,2,0,0,0-2,2A19.08,19.08,0,0,0,288.62,289.6Z" transform="translate(-195.95 -77.56)"/><path class="cls-6" d="M374.54,365.1a2.89,2.89,0,0,0,0-4.08l-13.18-13.31a2.88,2.88,0,0,0-4.08,0l-1.22,1.21a2.88,2.88,0,0,0,0,4.08l13.18,13.32a2.89,2.89,0,0,0,4.08,0Z" transform="translate(-195.95 -77.56)"/><path class="cls-6" d="M493.26,361.18a14.47,14.47,0,0,0-3.4,20.38,1.53,1.53,0,0,0,2.11.35,14.46,14.46,0,0,0,3.4-20.37A1.52,1.52,0,0,0,493.26,361.18Z" transform="translate(-195.95 -77.56)"/><path class="cls-6" d="M504.44,381.52a14.39,14.39,0,0,0-10.9,2.58,1.52,1.52,0,0,0-.35,2.1,14.47,14.47,0,0,0,20.38,3.4,1.51,1.51,0,0,0,.35-2.1A14.42,14.42,0,0,0,504.44,381.52Z" transform="translate(-195.95 -77.56)"/><path class="cls-6" d="M505.29,352.59a14.47,14.47,0,0,0-3.4,20.38,1.53,1.53,0,0,0,2.11.35A14.44,14.44,0,0,0,507.39,353,1.51,1.51,0,0,0,505.29,352.59Z" transform="translate(-195.95 -77.56)"/><path class="cls-6" d="M525.94,378.91a14.46,14.46,0,0,0-20.37-3.4,1.51,1.51,0,0,0-.35,2.1A14.47,14.47,0,0,0,525.6,381,1.52,1.52,0,0,0,525.94,378.91Z" transform="translate(-195.95 -77.56)"/><path class="cls-6" d="M519.42,344.36a1.51,1.51,0,0,0-2.1-.35,14.47,14.47,0,0,0-3.4,20.38,1.51,1.51,0,0,0,2.1.35,14.47,14.47,0,0,0,3.4-20.38Z" transform="translate(-195.95 -77.56)"/><path class="cls-6" d="M528.49,364.34a14.38,14.38,0,0,0-10.9,2.58,1.52,1.52,0,0,0-.35,2.1,14.47,14.47,0,0,0,20.38,3.4,1.52,1.52,0,0,0,.35-2.1A14.45,14.45,0,0,0,528.49,364.34Z" transform="translate(-195.95 -77.56)"/><path class="cls-6" d="M531.45,335.77a1.53,1.53,0,0,0-2.11-.35A14.46,14.46,0,0,0,526,355.8a1.51,1.51,0,0,0,2.1.35,14.47,14.47,0,0,0,3.4-20.38Z" transform="translate(-195.95 -77.56)"/><path class="cls-6" d="M540.51,355.75a14.4,14.4,0,0,0-10.9,2.58,1.53,1.53,0,0,0-.35,2.1,14.47,14.47,0,0,0,20.38,3.4,1.51,1.51,0,0,0,.35-2.1A14.44,14.44,0,0,0,540.51,355.75Z" transform="translate(-195.95 -77.56)"/><path class="cls-6" d="M541.51,341.53a14.42,14.42,0,0,0-5.88,9.54,1.53,1.53,0,0,0,1.24,1.74,14.45,14.45,0,0,0,16.81-12,1.53,1.53,0,0,0-1.23-1.74A14.47,14.47,0,0,0,541.51,341.53Z" transform="translate(-195.95 -77.56)"/><path class="cls-6" d="M474.73,396.62a2.18,2.18,0,0,0,3,.51l11.54-8.24a2.19,2.19,0,0,0,.51-3.05l-.76-1.06a2.18,2.18,0,0,0-3-.51l-11.54,8.24a2.18,2.18,0,0,0-.51,3Z" transform="translate(-195.95 -77.56)"/><path class="cls-6" d="M464.08,325.12a14.47,14.47,0,0,0-3.4,20.38,1.51,1.51,0,0,0,2.1.35,14.46,14.46,0,0,0,3.4-20.37A1.52,1.52,0,0,0,464.08,325.12Z" transform="translate(-195.95 -77.56)"/><path class="cls-6" d="M475.25,345.46a14.45,14.45,0,0,0-10.9,2.58,1.53,1.53,0,0,0-.35,2.11,14.47,14.47,0,0,0,20.38,3.4,1.53,1.53,0,0,0,.35-2.11A14.45,14.45,0,0,0,475.25,345.46Z" transform="translate(-195.95 -77.56)"/><path class="cls-6" d="M476.1,316.53a14.46,14.46,0,0,0-3.39,20.38,1.52,1.52,0,0,0,2.1.36,14.47,14.47,0,0,0,3.4-20.38A1.53,1.53,0,0,0,476.1,316.53Z" transform="translate(-195.95 -77.56)"/><path class="cls-6" d="M496.75,342.85a14.46,14.46,0,0,0-20.37-3.4,1.53,1.53,0,0,0-.35,2.11,14.47,14.47,0,0,0,20.38,3.4A1.53,1.53,0,0,0,496.75,342.85Z" transform="translate(-195.95 -77.56)"/><path class="cls-6" d="M490.24,308.3a1.53,1.53,0,0,0-2.11-.35,14.47,14.47,0,0,0-3.4,20.38,1.53,1.53,0,0,0,2.11.35,14.47,14.47,0,0,0,3.4-20.38Z" transform="translate(-195.95 -77.56)"/><path class="cls-6" d="M499.3,328.28a14.44,14.44,0,0,0-10.9,2.58,1.53,1.53,0,0,0-.35,2.11,14.47,14.47,0,0,0,20.38,3.4,1.53,1.53,0,0,0,.35-2.11A14.44,14.44,0,0,0,499.3,328.28Z" transform="translate(-195.95 -77.56)"/><path class="cls-6" d="M502.26,299.71a1.51,1.51,0,0,0-2.1-.35,14.47,14.47,0,0,0-3.4,20.38,1.53,1.53,0,0,0,2.11.35,14.45,14.45,0,0,0,3.39-20.38Z" transform="translate(-195.95 -77.56)"/><path class="cls-6" d="M511.33,319.69a14.44,14.44,0,0,0-10.9,2.58,1.53,1.53,0,0,0-.35,2.11,14.47,14.47,0,0,0,20.38,3.4,1.53,1.53,0,0,0,.35-2.11A14.47,14.47,0,0,0,511.33,319.69Z" transform="translate(-195.95 -77.56)"/><path class="cls-6" d="M512.33,305.47a14.41,14.41,0,0,0-5.88,9.54,1.52,1.52,0,0,0,1.23,1.74,14.46,14.46,0,0,0,16.82-12,1.51,1.51,0,0,0-1.24-1.73A14.4,14.4,0,0,0,512.33,305.47Z" transform="translate(-195.95 -77.56)"/><path class="cls-6" d="M445.54,360.57a2.19,2.19,0,0,0,3,.51l11.54-8.25a2.18,2.18,0,0,0,.51-3l-.76-1.07a2.19,2.19,0,0,0-3.05-.51l-11.54,8.24a2.19,2.19,0,0,0-.51,3.05Z" transform="translate(-195.95 -77.56)"/><path class="cls-6" d="M442.2,290.74a14.48,14.48,0,0,0-3.4,20.39,1.54,1.54,0,0,0,2.11.35,14.46,14.46,0,0,0,3.39-20.38A1.52,1.52,0,0,0,442.2,290.74Z" transform="translate(-195.95 -77.56)"/><path class="cls-6" d="M453.38,311.08a14.39,14.39,0,0,0-10.9,2.59,1.52,1.52,0,0,0-.36,2.1,14.47,14.47,0,0,0,20.38,3.4,1.53,1.53,0,0,0,.36-2.11A14.51,14.51,0,0,0,453.38,311.08Z" transform="translate(-195.95 -77.56)"/><path class="cls-6" d="M454.23,282.16a14.47,14.47,0,0,0-3.4,20.38,1.52,1.52,0,0,0,2.1.35,14.47,14.47,0,0,0,3.4-20.38A1.5,1.5,0,0,0,454.23,282.16Z" transform="translate(-195.95 -77.56)"/><path class="cls-6" d="M474.88,308.47a14.46,14.46,0,0,0-20.38-3.39,1.51,1.51,0,0,0-.35,2.1,14.47,14.47,0,0,0,20.38,3.4A1.53,1.53,0,0,0,474.88,308.47Z" transform="translate(-195.95 -77.56)"/><path class="cls-6" d="M468.36,273.92a1.54,1.54,0,0,0-2.11-.35A14.46,14.46,0,0,0,462.86,294a1.51,1.51,0,0,0,2.1.35,14.47,14.47,0,0,0,3.4-20.38Z" transform="translate(-195.95 -77.56)"/><path class="cls-6" d="M477.42,293.9a14.45,14.45,0,0,0-10.9,2.58,1.53,1.53,0,0,0-.35,2.11,14.47,14.47,0,0,0,20.38,3.4,1.52,1.52,0,0,0,.35-2.11A14.44,14.44,0,0,0,477.42,293.9Z" transform="translate(-195.95 -77.56)"/><path class="cls-6" d="M480.39,265.33a1.54,1.54,0,0,0-2.11-.35,14.47,14.47,0,0,0-3.4,20.38,1.52,1.52,0,0,0,2.11.35,14.47,14.47,0,0,0,3.4-20.38Z" transform="translate(-195.95 -77.56)"/><path class="cls-6" d="M489.45,285.31a14.44,14.44,0,0,0-10.9,2.58,1.53,1.53,0,0,0-.35,2.11,14.47,14.47,0,0,0,20.38,3.4,1.53,1.53,0,0,0,.35-2.11A14.5,14.5,0,0,0,489.45,285.31Z" transform="translate(-195.95 -77.56)"/><path class="cls-6" d="M490.45,271.1a14.4,14.4,0,0,0-5.88,9.54,1.51,1.51,0,0,0,1.24,1.73,14.45,14.45,0,0,0,16.81-12,1.51,1.51,0,0,0-1.24-1.73A14.4,14.4,0,0,0,490.45,271.1Z" transform="translate(-195.95 -77.56)"/><path class="cls-6" d="M423.66,326.19a2.19,2.19,0,0,0,3,.51l11.54-8.25a2.18,2.18,0,0,0,.51-3l-.76-1.07a2.19,2.19,0,0,0-3.05-.5l-11.54,8.23a2.19,2.19,0,0,0-.51,3.05Z" transform="translate(-195.95 -77.56)"/></g></svg>